<svg width="800" height="734" viewBox="0 0 800 734" fill="none" xmlns="http://www.w3.org/2000/svg">
<path d="M433.035 0.5C635.125 0.500216 799.502 164.889 799.5 366.953C799.5 569.03 635.123 733.418 433.033 733.418C244.117 733.418 88.2661 589.729 68.7119 405.936L68.624 405.109L67.9355 405.574L11.4814 443.617C8.81547 445.402 5.32441 445.167 2.92969 443.078H2.92871C0.507905 440.976 -0.198081 437.517 1.24121 434.65L1.24316 434.647C26.578 383.401 117.504 199.462 123.34 187.697L123.343 187.691C124.489 185.302 126.927 183.774 129.614 183.774C132.223 183.774 134.595 185.208 135.808 187.474L135.922 187.695L135.923 187.697C258.59 435.787 174.371 265.506 258.044 434.647C259.435 437.517 258.725 440.977 256.33 443.079C253.985 445.105 250.631 445.384 248.003 443.777L247.751 443.616L197.58 409.789L196.596 409.125L196.809 410.294C217.265 522.204 315.3 607.337 433.035 607.337C565.589 607.337 673.434 499.516 673.434 366.951C673.434 234.399 565.589 126.581 433.035 126.581C343.465 126.581 265.297 175.913 223.949 248.752L182.385 164.72H182.386C175.471 150.658 163.441 140.564 149.226 135.583C216.483 53.2416 318.684 0.5 433.035 0.5Z" fill="#8B6F5A" stroke="black"/>
</svg>
