<svg width="93" height="65" viewBox="0 0 93 65" fill="none" xmlns="http://www.w3.org/2000/svg">
<path d="M27.0085 64.5124C25.3018 64.5124 23.9365 64.171 22.9125 63.4884C21.9738 62.891 21.2485 62.123 20.7365 61.1844C20.3098 60.2457 19.9258 59.3924 19.5845 58.6244L0.7685 11.0084C0.2565 9.38702 0.000500202 8.02168 0.000500202 6.91235C0.0858335 5.80302 0.5125 4.86435 1.2805 4.09635C2.13383 3.24302 3.37117 2.51768 4.9925 1.92035C7.72317 0.811015 9.8565 0.512348 11.3925 1.02435C13.0138 1.53635 14.2085 2.98701 14.9765 5.37635L27.1365 37.6324L38.1445 6.78435C38.4005 6.01635 38.7845 5.20568 39.2965 4.35235C39.8085 3.49902 40.5338 2.77368 41.4725 2.17635C42.4965 1.49368 43.8618 1.15235 45.5685 1.15235C47.3605 1.15235 48.7685 1.49368 49.7925 2.17635C50.8165 2.77368 51.5845 3.49902 52.0965 4.35235C52.6938 5.20568 53.0778 6.01635 53.2485 6.78435L64.2565 37.8883L75.9045 6.52835C76.9285 3.88301 78.2085 2.13368 79.7445 1.28035C81.2805 0.427015 83.3712 0.512348 86.0165 1.53635C88.4058 2.56035 90.0272 3.84035 90.8805 5.37635C91.7338 6.82702 91.6485 8.74702 90.6245 11.1363L71.6805 58.6244C71.3392 59.4777 70.9125 60.3737 70.4005 61.3124C69.9738 62.1657 69.2485 62.891 68.2245 63.4884C67.2858 64.171 66.0058 64.5124 64.3845 64.5124C62.6778 64.5124 61.3125 64.2137 60.2885 63.6164C59.3498 63.1044 58.6245 62.379 58.1125 61.4404C57.6005 60.5017 57.1738 59.5204 56.8325 58.4964L45.6965 26.8803L34.5605 58.4964C34.0485 59.691 33.5792 60.7577 33.1525 61.6964C32.7258 62.635 32.0432 63.3177 31.1045 63.7444C30.1658 64.2564 28.8005 64.5124 27.0085 64.5124Z" fill="#C0392B"/>
</svg>
