<svg width="779" height="734" viewBox="0 0 779 734" fill="none" xmlns="http://www.w3.org/2000/svg">
<path d="M436.929 7.27403C238.552 -31.2863 45.8287 98.7176 7.27459 297.07C-31.2833 495.434 98.7066 688.166 297.084 726.727C482.529 762.774 662.934 651.462 717.198 474.777L717.442 473.983L718.029 474.57L766.187 522.686C768.463 524.946 771.935 525.382 774.684 523.789L774.685 523.789C777.463 522.187 778.816 518.927 777.95 515.838L777.949 515.835C762.857 460.696 708.699 262.787 705.215 250.125L705.214 250.118C704.545 247.554 702.442 245.589 699.805 245.077C697.244 244.579 694.642 245.533 693.019 247.526L692.865 247.722L692.864 247.724C525.113 467.849 640.276 316.766 525.866 466.835C523.953 469.386 523.99 472.918 525.939 475.439C527.855 477.874 531.094 478.789 533.98 477.713L534.258 477.603L589.962 453.97L591.055 453.506L590.623 454.613C549.189 560.564 436.711 625.427 321.139 602.962C191.021 577.669 105.731 451.252 131.025 321.122C156.317 191.005 282.753 105.746 412.872 131.039C500.796 148.129 568.115 211.47 594.805 290.86L651.64 216.303L651.639 216.303C661.109 203.819 674.844 196.206 689.749 194.029C639.439 100.367 549.18 29.0933 436.929 7.27403Z" fill="#C0392B" stroke="black"/>
</svg>
